<?xml version="1.0" encoding="utf-8"?><svg version="1.1" id="Layer_1" xmlns="http://www.w3.org/2000/svg" xmlns:xlink="http://www.w3.org/1999/xlink" x="0px" y="0px" viewBox="0 0 122.88 112.37" style="enable-background:new 0 0 122.88 112.37" xml:space="preserve"><style type="text/css">.st0{fill-rule:evenodd;clip-rule:evenodd;}</style><g><path style=" stroke:none;fill-rule:nonzero;fill:rgb(74.509805%,74.509805%,74.509805%);fill-opacity:1;" d="M1.35,71.08h47.09c0.74,0,1.35,0.61,1.35,1.35v31.19c0,0.74-0.61,1.35-1.35,1.35H1.35 c-0.74,0-1.35-0.61-1.35-1.35V72.43C0,71.69,0.61,71.08,1.35,71.08L1.35,71.08L1.35,71.08z M37.9,0h47.09 c0.74,0,1.35,0.61,1.35,1.35v31.19c0,0.74-0.61,1.35-1.35,1.35H37.9c-0.74,0-1.35-0.61-1.35-1.35V1.35C36.54,0.61,37.15,0,37.9,0 L37.9,0L37.9,0z M55.3,35.77h12.28c0.03,2.13,0.91,4.03,3.28,5.52H52.02C53.92,39.92,55.31,38.25,55.3,35.77L55.3,35.77L55.3,35.77 z M61.44,29.34c0.96,0,1.74,0.78,1.74,1.74c0,0.96-0.78,1.74-1.74,1.74c-0.96,0-1.74-0.78-1.74-1.74 C59.7,30.12,60.48,29.34,61.44,29.34L61.44,29.34z M40.62,2.55h41.65c0.66,0,1.2,0.54,1.2,1.2v23.31c0,0.66-0.54,1.2-1.2,1.2H40.62 c-0.66,0-1.2-0.54-1.2-1.2V3.75C39.42,3.09,39.96,2.55,40.62,2.55L40.62,2.55L40.62,2.55z M61.34,59.82l-7.15,4.44 c-0.77,0.73-1.98,0.7-2.72-0.07c-0.73-0.77-0.7-1.98,0.07-2.72l7.98-5.23l-0.21-7.43c-0.02-1.06,0.82-1.93,1.88-1.96 c1.06-0.02,1.93,0.82,1.96,1.88l0.21,7.7l8.87,5.04c0.77,0.73,0.8,1.95,0.07,2.71c-0.73,0.77-1.95,0.8-2.72,0.07L61.34,59.82 L61.34,59.82L61.34,59.82z M74.44,71.08h47.09c0.74,0,1.35,0.61,1.35,1.35v31.19c0,0.74-0.61,1.35-1.35,1.35H74.44 c-0.74,0-1.35-0.61-1.35-1.35V72.43C73.09,71.69,73.7,71.08,74.44,71.08L74.44,71.08L74.44,71.08z M91.85,106.85h12.28 c0.03,2.13,0.91,4.03,3.28,5.52H88.57C90.46,110.99,91.85,109.32,91.85,106.85L91.85,106.85L91.85,106.85z M97.98,100.42 c0.96,0,1.74,0.78,1.74,1.74c0,0.96-0.78,1.74-1.74,1.74c-0.96,0-1.74-0.78-1.74-1.74C96.25,101.2,97.02,100.42,97.98,100.42 L97.98,100.42z M77.16,73.63h41.65c0.66,0,1.2,0.54,1.2,1.2v23.31c0,0.66-0.54,1.2-1.2,1.2H77.16c-0.66,0-1.2-0.54-1.2-1.2V74.82 C75.96,74.16,76.5,73.63,77.16,73.63L77.16,73.63L77.16,73.63z M18.76,106.85h12.28c0.03,2.13,0.91,4.03,3.28,5.52H15.48 C17.38,110.99,18.76,109.32,18.76,106.85L18.76,106.85L18.76,106.85z M24.9,100.42c0.96,0,1.74,0.78,1.74,1.74 c0,0.96-0.78,1.74-1.74,1.74c-0.96,0-1.74-0.78-1.74-1.74C23.16,101.2,23.94,100.42,24.9,100.42L24.9,100.42z M4.07,73.63h41.65 c0.66,0,1.2,0.54,1.2,1.2v23.31c0,0.66-0.54,1.2-1.2,1.2H4.07c-0.66,0-1.2-0.54-1.2-1.2V74.82C2.87,74.16,3.41,73.63,4.07,73.63 L4.07,73.63L4.07,73.63z"/></g></svg>
